/vscmnt/brussel_pixiu_data/_data_brussel/112/vsc11236/PredSimResults/SUBJ04opt3D/weighted-trackIG/worker_04.mot
version=1
nRows=9
nColumns=50
inDegrees=yes
endheader
                time	         pelvis_tilt	         pelvis_list	     pelvis_rotation	           pelvis_tx	           pelvis_ty	           pelvis_tz	       hip_flexion_r	     hip_adduction_r	      hip_rotation_r	        knee_angle_r	       ankle_angle_r	         mtp_angle_r	       hip_flexion_l	     hip_adduction_l	      hip_rotation_l	        knee_angle_l	       ankle_angle_l	         mtp_angle_l	    lumbar_extension	      lumbar_bending	     lumbar_rotation	 ercspn_r/activation	 intobl_r/activation	 extobl_r/activation	    abd_r/activation	    add_r/activation	hamstrings_r/activation	bifemsh_r/activation	glut_max_r/activation	iliopsoas_r/activation	rect_fem_r/activation	  vasti_r/activation	gastroc_r/activation	 soleus_r/activation	tib_ant_r/activation	 ercspn_l/activation	 intobl_l/activation	 extobl_l/activation	    abd_l/activation	    add_l/activation	hamstrings_l/activation	bifemsh_l/activation	glut_max_l/activation	iliopsoas_l/activation	rect_fem_l/activation	  vasti_l/activation	gastroc_l/activation	 soleus_l/activation	tib_ant_l/activation	
          0.00000000	         -1.73715759	          0.37180814	          7.50600531	          0.00000000	          0.88076368	         -0.00911553	         28.80499655	         -2.48029414	         -8.15714512	        -11.50947758	          4.21121592	          0.23753884	        -12.93322288	         -0.06834448	         -7.05846629	         -7.29981924	         13.90456275	         19.88199757	        -13.58202382	         -3.64130485	         -8.40648133	          0.04660805	          0.22605976	          0.01750225	          0.00999999	          0.36253588	          0.06631908	          0.03507050	          0.01436803	          0.16210994	          0.03384848	          0.04172521	          0.01000009	          0.01354730	          0.32883223	          0.03123079	          0.01000000	          0.01000000	          0.06346320	          0.01000009	          0.02557668	          0.32673046	          0.01685806	          0.02033744	          0.01000059	          0.01000002	          0.29211693	          0.27469176	          0.01000001	
          0.01331476	         -1.82515397	          0.31755261	          7.25025183	          0.01584554	          0.87838075	         -0.00868433	         28.80704573	         -2.28020339	         -8.10736123	        -13.14249209	          4.03766030	          0.22405487	        -13.58916102	         -0.21445159	         -7.74412213	         -7.95942132	         13.71201008	         21.37137273	        -13.03459723	         -2.92331612	         -8.48519834	          0.03814352	          0.22322320	          0.01432365	          0.01000001	          0.29669544	          0.07408570	          0.02870142	          0.03981923	          0.13266900	          0.02770123	          0.03414749	          0.01221923	          0.01492899	          0.35242981	          0.03409366	          0.01000000	          0.01000001	          0.05193759	          0.01000020	          0.03895986	          0.27645593	          0.01379646	          0.01664397	          0.01000002	          0.01000002	          0.27572075	          0.27509635	          0.01000000	
          0.02662952	         -1.89774723	          0.19047052	          6.95191428	          0.03201671	          0.87622867	         -0.00816397	         28.69996569	         -2.02813461	         -8.10438826	        -14.57546410	          3.62982162	          0.21580180	        -14.14163287	         -0.45004352	         -8.47242286	         -8.86747637	         13.43230638	         22.93391261	        -12.46040127	         -2.10561021	         -8.52839458	          0.03121626	          0.18268346	          0.01172232	          0.01812303	          0.24281243	          0.08251353	          0.02348903	          0.03269722	          0.10857486	          0.02267038	          0.09971003	          0.01000011	          0.01221773	          0.38154060	          0.03048801	          0.00999999	          0.01000001	          0.04250516	          0.01000008	          0.03188514	          0.22624860	          0.01129088	          0.01362129	          0.01000002	          0.01000001	          0.22564714	          0.26584459	          0.01000000	
          0.03994429	         -1.95556642	          0.00707299	          6.61071109	          0.04837505	          0.87448456	         -0.00752545	         28.49449147	         -1.72998590	         -8.24006296	        -15.84338613	          3.19572827	          0.19408256	        -14.54508985	         -0.76693968	         -9.24265375	        -10.08566241	         13.01614999	         24.56147184	        -11.88269703	         -1.21389303	         -8.53127222	          0.02554710	          0.14950615	          0.01000001	          0.03400749	          0.21222565	          0.08380576	          0.01922326	          0.02675909	          0.08885648	          0.01855320	          0.18000235	          0.01000005	          0.01000002	          0.40764695	          0.04183538	          0.01000000	          0.01000000	          0.03478576	          0.01000013	          0.05238466	          0.18515941	          0.01053408	          0.01114756	          0.01000002	          0.01000001	          0.18466716	          0.25124769	          0.01000000	
          0.05325905	         -1.99915614	         -0.22681056	          6.23846389	          0.06480802	          0.87333290	         -0.00676323	         28.15819487	         -1.38877968	         -8.50797389	        -16.94076160	          2.96378518	          0.16970725	        -14.75306177	         -1.17309148	        -10.04530755	        -11.67206955	         12.39684324	         26.26234170	        -11.31741090	         -0.26252528	         -8.49572329	          0.02565156	          0.12235420	          0.01000002	          0.07060130	          0.18938761	          0.08240412	          0.01573219	          0.02189940	          0.07271918	          0.01518374	          0.23626824	          0.01000011	          0.01000008	          0.41439810	          0.07101236	          0.01000000	          0.01000000	          0.02846829	          0.01000016	          0.05611143	          0.15153246	          0.01437051	          0.01000011	          0.01000002	          0.01000001	          0.15112959	          0.21186511	          0.01000000	
          0.06657381	         -2.02998648	         -0.50118595	          5.84668831	          0.08114277	          0.87295299	         -0.00587324	         27.69125008	         -1.00253657	         -8.84306344	        -17.86173354	          2.97444228	          0.14899420	        -14.70625867	         -1.67477086	        -10.87999547	        -13.69967526	         11.51847570	         28.01705948	        -10.78429850	          0.72943957	         -8.42635998	          0.02802638	          0.10013334	          0.01000003	          0.09751849	          0.17215464	          0.08282976	          0.01287519	          0.01792228	          0.05951258	          0.01242621	          0.25904888	          0.01000007	          0.01000003	          0.40553065	          0.09441126	          0.01000000	          0.01000000	          0.02329813	          0.01000070	          0.08222260	          0.12401253	          0.02229232	          0.01000010	          0.01000001	          0.01000001	          0.12368280	          0.17338809	          0.00999999	
          0.07988857	         -2.04909392	         -0.79828032	          5.44756412	          0.09723006	          0.87340006	         -0.00486348	         27.11205548	         -0.57639618	         -9.16759390	        -18.61923396	          3.21436280	          0.14434287	        -14.36094605	         -2.27060917	        -11.74347431	        -16.21705091	         10.33790640	         29.78545703	        -10.29922278	          1.73657243	         -8.32875219	          0.02956424	          0.08194804	          0.01000006	          0.11482508	          0.17855123	          0.08493738	          0.01053716	          0.01466751	          0.04870445	          0.01016948	          0.27918250	          0.01000006	          0.01000003	          0.37324840	          0.08994195	          0.01000002	          0.01000000	          0.01906694	          0.11588472	          0.10083073	          0.10149052	          0.01824383	          0.01000006	          0.01000000	          0.01000001	          0.10122066	          0.14189892	          0.00999999	
          0.09320333	         -2.05754879	         -1.08798359	          5.05089606	          0.11295606	          0.87463393	         -0.00375807	         26.41756053	         -0.12579955	         -9.40480371	        -19.18214859	          3.62784746	          0.19265365	        -13.69135391	         -2.94526103	        -12.61739733	        -19.24151549	          8.82574467	         31.47352458	         -9.87528446	          2.72353582	         -8.20529977	          0.02824669	          0.06706538	          0.01000020	          0.12359687	          0.17761638	          0.08842084	          0.01000033	          0.01390876	          0.03985919	          0.01000001	          0.28198154	          0.01000013	          0.01000010	          0.33669352	          0.08340495	          0.01000008	          0.01000000	          0.01560418	          0.18678585	          0.11677469	          0.08305876	          0.01493056	          0.01000005	          0.01000000	          0.01000000	          0.08283788	          0.11612853	          0.00999999	
          0.10651810	         -2.05578633	         -1.33470782	          4.66175004	          0.12825205	          0.87654553	         -0.00258700	         25.59784033	          0.31705365	         -9.52699304	        -19.50210293	          4.05971217	          0.31711556	        -12.69996215	         -3.67405139	        -13.48780324	        -22.74018548	          6.97845117	         32.90245453	         -9.52063384	          3.64969814	         -8.05389677	          0.02723869	          0.05488557	          0.01000031	          0.12772025	          0.17249581	          0.09115637	          0.01000067	          0.01181474	          0.03262033	          0.01000001	          0.27061946	          0.01000004	          0.01000002	          0.30284550	          0.07440024	          0.01113697	          0.01000001	          0.01277029	          0.20676201	          0.11078560	          0.06797457	          0.01221901	          0.01000006	          0.01000000	          0.00999999	          0.06779362	          0.09503832	          0.01000000	
